<svg height="22.159" viewBox="0 0 22.1592 22.1592" width="22.159" xmlns="http://www.w3.org/2000/svg" class="_button__logo_wqc1z_29 _black_wqc1z_52"><path d="M19.39 0c.497 0 .962.132 1.365.36l.019.011q.053.032.105.065a3 3 0 0 1 .315.234l.075.066a3 3 0 0 1 .361.408q.063.086.118.176l.04.065.008.015c.23.404.363.871.363 1.37v3.693c0 .501-.134.97-.366 1.375l-.005.01q-.02.032-.04.063a3 3 0 0 1-.107.164q-.04.055-.081.108l-.07.084-.067.074q-.084.09-.176.174l-.042.039a3 3 0 0 1-.18.141 3 3 0 0 1-.179.122q-.035.023-.072.045l-.019.01a2.76 2.76 0 0 1-1.365.361h-1.847a8.31 8.31 0 0 0-8.31 8.31v1.847c0 .497-.133.962-.361 1.365l-.01.019q-.022.037-.045.072a4.745 4.745 0 0 1-.176.253l-.078.095a2.4 2.4 0 0 1-.222.229l-.074.067-.084.07q-.053.041-.108.081l-.14.093q-.043.028-.086.054l-.018.009c-.404.229-.87.362-1.368.362H2.77c-.5 0-.967-.133-1.371-.363l-.014-.008-.065-.04a2.6 2.6 0 0 1-.354-.258l-.074-.067a3 3 0 0 1-.156-.154l-.066-.075a2 2 0 0 1-.133-.169 3 3 0 0 1-.122-.179q-.023-.035-.044-.072l-.011-.019A2.76 2.76 0 0 1 0 19.39v-3.694c0-.497.132-.963.36-1.366l.011-.018.044-.073q.06-.098.129-.189l.043-.058.082-.101q.041-.047.084-.092.067-.071.14-.138.03-.03.063-.058.051-.045.106-.087.035-.028.071-.053.105-.078.219-.146l.033-.019.063-.038a2.76 2.76 0 0 1 1.322-.333h1.847a8.31 8.31 0 0 0 8.31-8.311V2.77c0-.614.2-1.179.536-1.637q.025-.036.053-.071.042-.054.087-.106.028-.032.058-.063.067-.073.138-.14.044-.043.092-.084a4 4 0 0 1 .171-.134 3 3 0 0 1 .25-.164L14.33.36c.403-.228.869-.36 1.366-.36z" fill="#1B1B23"></path><path d="M17.543 12.927c1.726 0 2.589 0 3.231.371a2.77 2.77 0 0 1 1.014 1.014c.371.642.371 1.505.371 3.231s0 2.589-.371 3.231a2.77 2.77 0 0 1-1.014 1.014c-.642.371-1.505.371-3.231.371s-2.589 0-3.231-.371a2.77 2.77 0 0 1-1.014-1.014c-.371-.642-.371-1.505-.371-3.231s0-2.589.371-3.231a2.76 2.76 0 0 1 1.014-1.014c.642-.371 1.505-.371 3.231-.371M4.617 0c1.726 0 2.589 0 3.232.371.421.243.77.593 1.013 1.014.371.642.371 1.506.371 3.231 0 1.726 0 2.589-.371 3.232a2.77 2.77 0 0 1-1.013 1.014c-.643.371-1.506.371-3.232.371s-2.589 0-3.232-.371A2.77 2.77 0 0 1 .371 7.848C0 7.205 0 6.342 0 4.616c0-1.725 0-2.589.371-3.231A2.77 2.77 0 0 1 1.385.371C2.028 0 2.891 0 4.617 0" fill="#1B1B23"></path></svg>